<svg xmlns="http://www.w3.org/2000/svg" xmlns:xlink="http://www.w3.org/1999/xlink" viewBox="0 0 64 64" width="64px" height="64px"><defs><linearGradient id="yRKIGRJQ4JLk6GmknQ2ewa" x1="3.5" x2="58.251" y1="9" y2="63.751" gradientUnits="userSpaceOnUse"><stop offset="0" stop-color="#662d91"/><stop offset=".437" stop-color="#3873b3"/><stop offset="1" stop-color="#00c9dd"/></linearGradient><linearGradient id="yRKIGRJQ4JLk6GmknQ2ewb" x1="13.25" x2="68.001" y1="-.75" y2="54.001" xlink:href="#yRKIGRJQ4JLk6GmknQ2ewa"/><linearGradient id="yRKIGRJQ4JLk6GmknQ2ewc" x1="4.734" x2="59.484" y1="7.766" y2="62.517" xlink:href="#yRKIGRJQ4JLk6GmknQ2ewa"/><linearGradient id="yRKIGRJQ4JLk6GmknQ2ewd" x1="17.336" x2="72.087" y1="-4.836" y2="49.915" xlink:href="#yRKIGRJQ4JLk6GmknQ2ewa"/></defs><path fill="url(#yRKIGRJQ4JLk6GmknQ2ewa)" d="M43,36A13.015,13.015,0,0,1,30,49v2A15.017,15.017,0,0,0,45,36V35H43Z"/><rect width="2" height="4" x="43" y="28" fill="url(#yRKIGRJQ4JLk6GmknQ2ewb)"/><path fill="url(#yRKIGRJQ4JLk6GmknQ2ewc)" d="M53,17H47.553l4-8.8a3.249,3.249,0,0,0,.094-2.426,3.206,3.206,0,0,0-4.055-2.028,3.22,3.22,0,0,0-1.9,1.7L40.36,17H12a1,1,0,0,0-1,1V36a19.028,19.028,0,0,0,8.746,16H6a1,1,0,0,0-1,1,4.959,4.959,0,0,0,4,4.912V61a1,1,0,0,0,1,1H52a1,1,0,0,0,1-1V57.912A4.959,4.959,0,0,0,57,53a1,1,0,0,0-1-1H40.254A19.028,19.028,0,0,0,49,36V35h4a9,9,0,0,0,0-18Zm-4,6h4a3,3,0,0,1,0,6H49ZM47.508,6.287a1.211,1.211,0,0,1,.715-.641,1.234,1.234,0,0,1,1.554.849,1.2,1.2,0,0,1-.046.88L45.356,17H42.563ZM51,60H11V58H51Zm1.154-4H9.846a2.866,2.866,0,0,1-2.684-2H54.838A2.866,2.866,0,0,1,52.154,56ZM47,36A17.014,17.014,0,0,1,35.743,52H24.257A17.014,17.014,0,0,1,13,36V19H47V36Zm6-3H49V31h4a5,5,0,0,0,0-10H49V19h4a7,7,0,0,1,0,14Z"/><path fill="url(#yRKIGRJQ4JLk6GmknQ2ewd)" d="M15,4H42.172a1,1,0,0,0,0-2H15a3,3,0,0,0,0,6H36.343a1,1,0,1,1,0,2H21a3,3,0,0,0,0,6H34.172a1,1,0,0,0,0-2H21a1,1,0,0,1,0-2H36.343a3,3,0,1,0,0-6H15a1,1,0,0,1,0-2Z"/></svg>